<svg version="1.0" xmlns="http://www.w3.org/2000/svg"
 width="64.000000pt" height="64.000000pt" viewBox="0 0 64.000000 64.000000"
 preserveAspectRatio="xMidYMid meet">

<g transform="translate(0.000000,64.000000) scale(0.100000,-0.100000)"
fill="#000000" stroke="none">
<path d="M480 604 c-66 -18 -129 -54 -185 -106 -39 -35 -47 -38 -98 -38 -31 0
-68 -5 -84 -11 -33 -12 -93 -67 -93 -85 0 -7 20 -20 44 -29 37 -14 45 -22 49
-48 3 -23 -2 -41 -21 -64 -31 -42 -51 -97 -52 -145 0 -37 1 -38 38 -38 48 1
103 21 145 53 27 20 40 24 67 18 28 -5 36 -13 48 -49 7 -23 20 -42 27 -42 21
0 82 77 89 112 3 17 6 51 6 75 0 39 6 52 45 95 24 27 55 73 69 102 27 58 52
175 43 200 -8 20 -61 20 -137 0z m95 -61 c-3 -21 -11 -55 -17 -75 l-11 -37
-57 57 -58 57 52 17 c28 9 62 17 75 17 21 1 23 -2 16 -36z m-142 -56 c16 -11
42 -38 58 -59 24 -34 27 -44 17 -61 -15 -30 -199 -217 -212 -217 -14 0 -146
131 -146 145 0 11 142 153 198 198 19 15 39 24 45 20 7 -3 25 -15 40 -26z
m-233 -75 c0 -5 -13 -20 -28 -35 -26 -25 -31 -26 -60 -16 -28 9 -31 14 -20 26
7 8 21 19 33 23 26 11 75 12 75 2z m-9 -228 l34 -35 -28 -24 c-28 -25 -103
-53 -113 -43 -16 17 41 138 65 138 4 0 23 -16 42 -36z m226 -25 c-3 -23 -14
-51 -25 -61 -19 -20 -20 -20 -31 13 -10 30 -9 35 16 61 37 39 47 35 40 -13z"/>
<path d="M291 403 c-11 -10 -24 -32 -27 -50 -9 -47 42 -98 89 -89 65 13 89 85
42 131 -29 30 -74 33 -104 8z m77 -35 c28 -28 1 -75 -37 -63 -11 3 -23 15 -26
26 -12 38 35 65 63 37z"/>
</g>
</svg>
